# xmcd CD database file
#
# Track frame offsets:
#	150
#	11962
#	23117
#	33515
#	42350
#	54395
#	66297
#	75772
#	86050
#	96925
#	109977
#	118942
#	131595
#	141652
#	152722
#	164165
#	174642
#	184442
#	196080
#
# Disc length: 2760 seconds
#
# Revision: 2
# Processed by: cddbd v1.5.1PL0 Copyright (c) Steve Scherf et al.
# Submitted via: CDex 1.51
#
DISCID=140ac613
DTITLE=Patsy Cline - Stop The World
DYEAR=1995
DGENRE=Country
TTITLE0=In Care of The Blues
TTITLE1=Stop The World
TTITLE2=Too Many Secrets
TTITLE3=Ain't No Wheels on This Ship
TTITLE4=If I Could Only Stay Asleep
TTITLE5=Never No More
TTITLE6=Love Me Honey Do
TTITLE7=Three Cigarettes in an Ashtray
TTITLE8=Honky Tonk Merry-Go-Round
TTITLE9=Life's Railway To Heaven
TTITLE10=Try Again
TTITLE11=Fingerprints
TTITLE12=Turn The Cards Slowly
TTITLE13=I Cried All The Way To The Altar
TTITLE14=Cry Not For Me
TTITLE15=I Love You Honey
TTITLE16=I'm Blue Again
TTITLE17=Let The Teardrops Fall
TTITLE18=Hidin' Out
EXTD=YEAR: 1995
EXTT0=
EXTT1=
EXTT2=
EXTT3=
EXTT4=
EXTT5=
EXTT6=
EXTT7=
EXTT8=
EXTT9=
EXTT10=
EXTT11=
EXTT12=
EXTT13=
EXTT14=
EXTT15=
EXTT16=
EXTT17=
EXTT18=
PLAYORDER=
